<?xml version="1.0" standalone="no"?><!DOCTYPE svg PUBLIC "-//W3C//DTD SVG 1.1//EN" "http://www.w3.org/Graphics/SVG/1.1/DTD/svg11.dtd"><svg t="1630722871926" class="icon" viewBox="0 0 1024 1024" version="1.1" xmlns="http://www.w3.org/2000/svg" p-id="36211" xmlns:xlink="http://www.w3.org/1999/xlink" width="200" height="200"><defs><style type="text/css"></style></defs><path d="M512 432.46249999L865.92499999 78.49999973a56.13749998 56.13749998 0 0 1 79.53750003-5e-8 56.17500029 56.17500029 0 0 1 0 79.53750002L591.49999971 512l353.925 353.92499999c21.97500029 21.97500029 22.12499972 57.4125003 0 79.53750003a56.17500029 56.17500029 0 0 1-79.53750004 0L512 591.49999971 158.07500001 945.50000027a56.13749998 56.13749998 0 0 1-79.53750003 5e-8 56.17500029 56.17500029 0 0 1 0-79.53750002L432.50000029 512 78.49999973 158.07500001a56.13749998 56.13749998 0 0 1-5e-8-79.53750003 56.17500029 56.17500029 0 0 1 79.53750002 0L512 432.50000029z" p-id="36212"></path></svg>