<?xml version="1.0" standalone="no"?><!DOCTYPE svg PUBLIC "-//W3C//DTD SVG 1.1//EN" "http://www.w3.org/Graphics/SVG/1.1/DTD/svg11.dtd"><svg t="1629892019393" class="icon" viewBox="0 0 1024 1024" version="1.1" xmlns="http://www.w3.org/2000/svg" p-id="36157" xmlns:xlink="http://www.w3.org/1999/xlink" width="200" height="200"><defs><style type="text/css"></style></defs><path d="M374.442667 486.229333l-81.237334 101.034667c-2.218667 4.352-2.218667 6.570667 0 8.789333 0 2.218667 2.218667 4.352 6.570667 4.352H719.36c4.352 0 6.570667-2.133333 6.570667-4.352 0-2.218667 2.218667-4.437333 0-8.789333l-81.237334-101.034667H374.442667z m362.922666 179.2H281.770667a66.56 66.56 0 0 1-57.173334-35.754666 67.242667 67.242667 0 0 1 7.082667-66.730667l104.96-128.853333h345.856l104.96 128.853333c14.250667 19.029333 19.029333 45.226667 7.168 66.730667a66.56 66.56 0 0 1-57.258667 35.84zM380.16 178.773333H639.146667L680.362667 76.544c2.218667-4.266667 0-6.485333 0-6.485333 0-2.218667-2.133333-4.352-6.485334-4.352H347.562667c-4.352 0-6.570667 2.133333-6.570667 4.266666 0 2.218667-2.133333 4.437333 0 6.570667l39.253333 102.229333z m307.114667 62.122667H331.861333l-57.173333-145.493333a61.269333 61.269333 0 0 1 7.082667-57.173334 63.317333 63.317333 0 0 1 52.48-26.282666h355.413333c21.418667 0 40.533333 9.557333 52.48 26.197333 11.946667 16.725333 14.250667 38.229333 7.082667 57.258667l-61.952 145.493333z" fill="#FFFFFF" p-id="36158"></path><path d="M386.901333 426.922667h245.248V245.76H386.901333v181.162667z m309.930667 59.733333H322.304V186.026667h372.053333v300.544h2.474667zM510.72 992.256c-19.029333-16.725333-28.586667-40.618667-30.976-66.816L458.24 636.842667h107.349333l-21.418666 288.597333a127.146667 127.146667 0 0 1-33.450667 66.816" fill="#FFFFFF" p-id="36159"></path><path d="M19.2 905.557333m52.48 0l878.08 0q52.48 0 52.48 52.48l0 0.085334q0 52.48-52.48 52.48l-878.08 0q-52.48 0-52.48-52.48l0-0.085334q0-52.48 52.48-52.48Z" fill="#FFFFFF" p-id="36160"></path></svg>