<?xml version="1.0" standalone="no"?><!DOCTYPE svg PUBLIC "-//W3C//DTD SVG 1.1//EN" "http://www.w3.org/Graphics/SVG/1.1/DTD/svg11.dtd"><svg t="1620113656424" class="icon" viewBox="0 0 1024 1024" version="1.1" xmlns="http://www.w3.org/2000/svg" p-id="9238" xmlns:xlink="http://www.w3.org/1999/xlink" width="200" height="200"><defs><style type="text/css"></style></defs><path d="M891.0336 113.7664a32 32 0 0 1 0 45.2352l-104.6016 104.6016a380.1088 380.1088 0 0 1 81.408 65.024l4.5312 4.7104c2.6112 2.6368 5.4272 5.3504 8.704 8.3968l11.6224 10.4192 30.6176 26.624 12.9792 11.6224c53.76 48.8448 73.984 78.7456 73.984 120.064 0 47.488-26.7776 79.744-100.3776 142.848l-17.8432 15.4368a471.04 471.04 0 0 0-15.5392 14.1312l-4.7104 4.6592-10.5984 11.008c-80.8192 81.4336-209.4848 129.536-346.7008 129.536-86.784 0-169.5744-18.9696-239.1808-53.3504l-135.5264 135.5008a32 32 0 1 1-45.2352-45.2352l123.8784-123.904a364.9536 364.9536 0 0 1-63.4368-56.192l-1.8176-2.048a249.0112 249.0112 0 0 0-21.4016-20.1728l-12.6976-10.7776-17.6896-14.72-12.4672-10.496C36.6592 581.7856 12.8 549.9392 12.8 510.464c0-38.7072 19.3792-66.5088 70.8096-111.7952l12.4416-10.7776 27.4688-23.1168c13.568-11.4688 21.4016-18.56 27.8016-25.3184l3.712-4.0448a30.0544 30.0544 0 1 1 44.9792 39.936c-6.656 7.4752-13.2352 14.0032-22.9888 22.6816l-9.216 8.0384-42.8544 36.1728c-12.288 10.6752-21.4528 19.328-29.2608 27.8016-15.1808 16.4352-22.784 30.0032-22.784 40.448 0 10.1376 7.2448 23.2448 21.7344 39.0912 7.8592 8.6016 17.152 17.408 29.696 28.2624l11.5968 9.856 17.4336 14.5152c17.8176 14.8224 28.416 24.0128 36.9664 32.5376l4.9664 5.0944 11.3408 12.3648a315.8272 315.8272 0 0 0 55.168 45.568l89.7536-89.8304a30.0544 30.0544 0 0 1 10.1632-10.1632l217.4976-217.472a146.4064 146.4064 0 0 0-200.1152 70.7328 146.4832 146.4832 0 0 0-12.288 69.632 30.0544 30.0544 0 0 1-60.0064 4.224 206.7712 206.7712 0 0 1 17.408-98.304c46.2592-103.936 168.448-150.8608 272.4096-104.576 9.3696 4.1728 18.2528 8.96 26.6496 14.2592l56.5248-56.5504c-50.5088-17.7408-106.88-27.3664-165.2736-27.3664-95.1808 0-185.7024 25.472-254.7968 71.552A30.08 30.08 0 0 1 226.3808 273.92c79.0272-52.736 181.3248-81.664 288.1536-81.664 75.3152 0 148.0704 14.4896 211.712 41.0368l119.552-119.5008a32 32 0 0 1 45.2352 0z m-148.5568 193.792l-71.0656 71.0912a206.592 206.592 0 0 1 29.824 215.808c-46.2848 103.9616-168.4992 150.8608-272.4608 104.576a205.7216 205.7216 0 0 1-48-29.7472l-60.1088 60.0832 10.112 4.2496c51.968 20.9664 110.7968 32.7168 170.88 34.2016l12.8768 0.1536c124.928 0 240.7168-44.1088 309.504-117.4272l6.656-6.8864c3.1744-3.1744 6.5536-6.4 10.4704-9.984l8.6528-7.7824 44.6976-38.8352c17.5872-15.6928 29.568-27.776 38.8864-39.68 11.2384-14.336 16.8192-26.624 16.8192-36.864 0-10.6752-5.9904-23.552-18.0224-38.6048-9.1648-11.4688-20.7104-23.1424-37.376-38.144l-11.904-10.496-26.7776-23.1936c-11.1104-9.728-18.4832-16.4608-25.0112-22.9376l-13.312-13.7472a332.9792 332.9792 0 0 0-75.3408-55.808z m-113.8432 113.8688l-205.056 205.0816a146.4064 146.4064 0 0 0 222.72-56.5248 146.3552 146.3552 0 0 0-17.664-148.5568z" fill="#CCCCCC" p-id="9239"></path></svg>