<?xml version="1.0" standalone="no"?><!DOCTYPE svg PUBLIC "-//W3C//DTD SVG 1.1//EN" "http://www.w3.org/Graphics/SVG/1.1/DTD/svg11.dtd"><svg t="1620113647693" class="icon" viewBox="0 0 1024 1024" version="1.1" xmlns="http://www.w3.org/2000/svg" p-id="8984" xmlns:xlink="http://www.w3.org/1999/xlink" width="200" height="200"><defs><style type="text/css"></style></defs><path d="M1024 866.459826V1024h-78.781217v-157.540174H1024z m-157.540174 0V1024H801.391304l-13.712695-13.712696v-143.827478h78.781217z m-78.758956-315.080348v157.540174h157.517913V551.401739H1024v236.321391H708.919652v-78.781217h-78.758956l-0.022261 143.805217-78.758957-78.758956v-222.586435h236.321392z m-315.080348 0l-0.022261 143.805218-143.782957-143.805218h143.805218zM1024 0v472.598261H551.379478V0H1024zM472.598261 0v472.598261h-222.564174l-78.758957-78.758957h222.564174V78.758957H78.758957v222.541913L0 222.564174V0h472.598261z m472.620522 78.758957H630.160696v315.080347H945.196522V78.758957zM315.080348 157.540174v157.540174H157.540174V157.540174h157.540174z m551.379478 0v157.540174h-157.540174V157.540174h157.540174z" fill="#26B8CF" p-id="8985"></path></svg>