<?xml version="1.0" standalone="no"?><!DOCTYPE svg PUBLIC "-//W3C//DTD SVG 1.1//EN" "http://www.w3.org/Graphics/SVG/1.1/DTD/svg11.dtd"><svg t="1636699945589" class="icon" viewBox="0 0 1024 1024" version="1.1" xmlns="http://www.w3.org/2000/svg" p-id="33810" xmlns:xlink="http://www.w3.org/1999/xlink" width="200" height="200"><defs><style type="text/css"></style></defs><path d="M915.692308 275.692308h-807.384616c-15.753846 0-29.538462-13.784615-29.538461-29.538462v-59.076923C78.769231 171.323077 92.553846 157.538462 108.307692 157.538462h807.384616c15.753846 0 29.538462 13.784615 29.538461 29.538461v59.076923c0 15.753846-13.784615 29.538462-29.538461 29.538462z m0 293.415384h-807.384616c-15.753846 0-29.538462-13.784615-29.538461-29.538461v-59.076923c0-13.784615 13.784615-27.569231 29.538461-27.569231h807.384616c15.753846 0 29.538462 13.784615 29.538461 29.538461v59.076924c0 13.784615-13.784615 27.569231-29.538461 27.56923z m0 297.353846h-807.384616c-15.753846 0-29.538462-13.784615-29.538461-29.538461v-59.076923c0-15.753846 13.784615-29.538462 29.538461-29.538462h807.384616c15.753846 0 29.538462 13.784615 29.538461 29.538462v59.076923c0 15.753846-13.784615 29.538462-29.538461 29.538461z" p-id="33811"></path></svg>