<?xml version="1.0" standalone="no"?><!DOCTYPE svg PUBLIC "-//W3C//DTD SVG 1.1//EN" "http://www.w3.org/Graphics/SVG/1.1/DTD/svg11.dtd"><svg t="1629894378650" class="icon" viewBox="0 0 1024 1024" version="1.1" xmlns="http://www.w3.org/2000/svg" p-id="41329" xmlns:xlink="http://www.w3.org/1999/xlink" width="200" height="200"><defs><style type="text/css"></style></defs><path d="M910.74 338.74L756.8 195.33c-11.5-10.71-27.32-16.15-43.59-14.99-1.53-0.12-3.03-0.18-4.48-0.18h-82.01l-5.75 2.98c-30.39 15.75-69.15 24.42-109.16 24.42s-78.78-8.67-109.16-24.42l-5.75-2.98h-82.02c-20.91 0-39.71 10.63-49.43 27.51L113.29 349.43C102.78 359.21 97 372.22 97 386.06c0 13.84 5.78 26.84 16.29 36.63l111.17 103.58c9.31 8.66 21.33 13.87 34.27 14.95v250.3c0 28.84 25.19 52.31 56.14 52.31h393.85c30.96 0 56.14-23.47 56.14-52.31V530.57c13.1-1 25.28-6.23 34.68-14.98l111.18-103.58c21.7-20.19 21.7-53.07 0.02-73.27z m0 0" p-id="41330"></path></svg>