<?xml version="1.0" standalone="no"?><!DOCTYPE svg PUBLIC "-//W3C//DTD SVG 1.1//EN" "http://www.w3.org/Graphics/SVG/1.1/DTD/svg11.dtd"><svg t="1629892026563" class="icon" viewBox="0 0 1024 1024" version="1.1" xmlns="http://www.w3.org/2000/svg" p-id="36289" xmlns:xlink="http://www.w3.org/1999/xlink" width="200" height="200"><defs><style type="text/css"></style></defs><path d="M301.824 455.509333l-168.021333 18.261334c-5.973333 2.048-8.021333 4.010667-8.021334 8.106666-2.048 1.962667-2.048 5.973333 1.962667 10.069334l386.730667 386.730666c4.010667 4.010667 8.021333 4.010667 10.069333 1.962667 2.048-1.962667 6.058667-1.962667 8.106667-8.021333l18.261333-168.106667-249.088-249.002667z m168.106667 467.626667L83.2 536.661333C62.976 516.266667 56.917333 485.802667 65.024 457.472a80.725333 80.725333 0 0 1 62.72-50.602667l198.4-20.224 293.546667 293.546667-20.224 198.4c-4.010667 28.330667-22.272 54.613333-50.602667 62.72-28.330667 8.106667-58.709333 2.048-78.933333-18.176z m93.098666-720.64l240.896 240.896 133.632-56.661333c6.058667-2.048 6.058667-6.058667 6.058667-6.058667 2.048-2.048 2.048-6.144-2.048-10.24L637.952 66.901333C633.856 62.805333 629.76 62.805333 627.797333 64.853333c-2.048 2.048-6.058667 2.048-6.058666 6.144l-58.709334 131.584z m224.682667 317.866667L486.058667 218.709333 560.981333 46.592a73.557333 73.557333 0 0 1 54.613334-42.496 76.032 76.032 0 0 1 66.901333 22.186667l301.653333 301.738666a75.946667 75.946667 0 0 1 22.186667 66.816 73.557333 73.557333 0 0 1-42.496 54.613334l-176.128 70.826666z" fill="#FFFFFF" p-id="36290"></path><path d="M360.618667 421.12l224.682666 224.682667 165.973334-165.973334L526.592 255.146667 360.618667 421.12z m226.730666 315.818667L269.482667 419.072l255.146666-255.061333 315.733334 315.818666-255.146667 255.146667 2.133333 1.962667z" fill="#FFFFFF" p-id="36291"></path><path d="M0.256 1008.213333c-2.048-30.378667 10.069333-58.709333 30.293333-83.029333L257.365333 662.016l91.050667 91.136L85.333333 979.882667a152.576 152.576 0 0 1-84.992 28.330666" fill="#FFFFFF" p-id="36292"></path></svg>