<?xml version="1.0" standalone="no"?><!DOCTYPE svg PUBLIC "-//W3C//DTD SVG 1.1//EN"
        "http://www.w3.org/Graphics/SVG/1.1/DTD/svg11.dtd">
<svg t="1620113637695" class="icon" viewBox="0 0 1024 1024" version="1.1" xmlns="http://www.w3.org/2000/svg" p-id="8857"
     xmlns:xlink="http://www.w3.org/1999/xlink" width="200" height="200">
    <defs>
        <style type="text/css"></style>
    </defs>
    <path d="M943.081739 44.877913a79.09287 79.09287 0 0 1 79.805218 75.620174l0.111304 4.296348v511.510261a79.09287 79.09287 0 0 1-75.620174 79.805217l-4.296348 0.111304H685.612522v100.930783h178.799304v145.229913l-124.660869-0.022261-54.227479-54.227478h124.66087v-36.730435l-161.413565-0.022261-54.227479-54.227478h36.841739v-100.930783h-137.772521l-54.249739-54.249739h481.458087c26.000696 0 46.124522-18.988522 47.838608-44.432695l0.111305-3.494957V147.055304c0-27.158261-20.769391-47.949913-47.949913-47.949913H102.177391c-25.978435 0-46.124522 19.010783-47.838608 44.432696l-0.111305 3.517217v129.78087L0 222.608696V124.416l0.111304-3.917913A79.026087 79.026087 0 0 1 75.620174 44.966957l4.296348-0.111305h863.165217z m-38.244174 118.160696v435.021913l-529.408-0.022261L118.160696 340.769391V163.038609h786.676869z"
          fill="#26B8CF" p-id="8858"></path>
</svg>
