<?xml version="1.0" standalone="no"?><!DOCTYPE svg PUBLIC "-//W3C//DTD SVG 1.1//EN" "http://www.w3.org/Graphics/SVG/1.1/DTD/svg11.dtd"><svg t="1620113652411" class="icon" viewBox="0 0 1024 1024" version="1.1" xmlns="http://www.w3.org/2000/svg" p-id="9111" xmlns:xlink="http://www.w3.org/1999/xlink" width="200" height="200"><defs><style type="text/css"></style></defs><path d="M514.5344 192.2304c137.216 0 265.856 48.0768 346.7008 129.536l8.576 8.9344c5.888 6.144 12.288 12.16 22.8864 21.4528l30.592 26.624 13.0048 11.6224c53.76 48.8448 73.984 78.7456 73.984 120.064 0 45.952-25.088 77.6448-93.4144 136.832l-24.832 21.4528c-9.0112 7.936-14.976 13.4656-20.224 18.7904l-10.5984 11.008c-80.8192 81.4336-209.4848 129.536-346.7008 129.536-141.7216 0-272.896-50.6112-353.2544-136.3456l-8.064-8.8576-4.2496-4.4544c-6.7072-6.784-15.3088-14.336-29.8496-26.5216l-17.6896-14.72-12.4672-10.496C36.6592 581.7856 12.8 549.9392 12.8 510.464c0-41.6768 22.4768-70.7328 83.2512-122.5728l27.4688-23.1168c13.568-11.4688 21.4016-18.56 27.8016-25.3184l3.712-4.0448a30.0544 30.0544 0 1 1 44.9792 39.936l-5.76 6.2464c-6.8608 7.168-14.592 14.336-26.4448 24.4736L124.928 442.24c-12.288 10.6752-21.4528 19.328-29.2608 27.8016-15.1808 16.4352-22.784 30.0032-22.784 40.448 0 10.1376 7.2448 23.2448 21.7344 39.0912 7.8592 8.6016 17.152 17.408 29.696 28.2624l11.5968 9.856 27.2896 22.784c15.1296 12.7488 24.064 20.8896 32.0768 29.3632l11.3408 12.3648c31.7696 33.28 74.496 61.3888 124.16 81.408 55.6544 22.4512 119.2192 34.3552 183.7312 34.3552 121.2672 0 233.9072-41.5488 303.3088-111.0272l12.8512-13.2864 6.7328-6.5024c3.584-3.4048 7.6032-7.04 12.3904-11.264l44.6976-38.8352 10.9312-9.984c11.8528-11.0848 20.7104-20.4288 27.9552-29.696 11.2384-14.336 16.8192-26.624 16.8192-36.864 0-10.6752-5.9904-23.552-18.0224-38.6048-9.1648-11.4688-20.7104-23.1424-37.376-38.144l-11.904-10.496-26.7776-23.1936-12.4416-11.0592c-4.8384-4.3776-8.832-8.192-12.544-11.8784l-13.312-13.7472c-69.4272-69.4784-182.016-111.0272-303.3088-111.0272-95.1808 0-185.7024 25.472-254.7968 71.552A30.08 30.08 0 0 1 226.3808 273.92c79.0272-52.736 181.3248-81.664 288.1536-81.664z m-1.8176 111.9488c31.8976 0 62.5664 7.1168 91.008 21.12a30.08 30.08 0 0 1-26.5472 53.9392 146.4064 146.4064 0 0 0-210.688 131.3024 146.4064 146.4064 0 0 0 146.2272 146.2016 146.4064 146.4064 0 0 0 146.2272-146.2016c0-23.936-5.888-47.6672-17.0496-68.608a30.0544 30.0544 0 0 1 53.0688-28.2624 206.7712 206.7712 0 0 1 24.0896 96.8704c0 113.792-92.544 206.336-206.336 206.336s-206.336-92.544-206.336-206.336c0-113.8176 92.544-206.3616 206.336-206.3616z m97.2544 152.0128l3.2256 0.4864c16.2304 3.4048 26.6496 19.2512 23.296 35.4304-3.5072 17.4592-12.7488 42.9312-29.3888 67.4816-28.5184 42.0352-69.248 64.4352-117.504 64.4352-3.9936 0-7.9616-0.1536-12.0064-0.4608a30.0544 30.0544 0 1 1 4.4544-59.9552c29.5424 2.176 53.1456-8.448 71.424-32.384l3.3792-4.6336 2.6624-4.0704c5.888-9.3184 10.5984-19.3792 14.1568-29.4656l2.1504-6.4512a115.712 115.712 0 0 0 0.768-2.6368l1.8944-7.2192c4.352-13.3632 17.4848-21.9392 31.488-20.5568z" fill="#CCCCCC" p-id="9112"></path></svg>