<?xml version="1.0" standalone="no"?><!DOCTYPE svg PUBLIC "-//W3C//DTD SVG 1.1//EN" "http://www.w3.org/Graphics/SVG/1.1/DTD/svg11.dtd"><svg t="1713254049146" class="icon" viewBox="0 0 1718 1024" version="1.1" xmlns="http://www.w3.org/2000/svg" p-id="3440" xmlns:xlink="http://www.w3.org/1999/xlink" width="429.5" height="256"><path d="M1137.358398 222.43912v-44.412335h-44.412336V0H536.219192c-37.995823 0-66.807224 28.937216-66.807225 66.807224v314.534956h22.143261V66.807224c0-24.65954 20.004423-44.663964 44.663964-44.663963h534.206167v177.775156h44.663964v44.663964h178.026785v712.610395c0 24.65954-20.004423 44.663964-44.663964 44.663963H536.219192c-24.65954 0-44.663964-20.004423-44.663964-44.663963V470.670107h-22.143261v486.522669c0 37.995823 28.937216 66.807224 66.807225 66.807224h712.232952c37.995823 0 66.807224-28.937216 66.807224-66.807224v-734.753656H1137.358398z" fill="#9FA0A6" p-id="3441"></path><path d="M558.362452 890.385551h667.946431v44.663964H558.362452v-44.663964z m0-111.21956h667.946431v44.663964H558.362452v-44.663964z m0-111.471188h667.946431v44.663963H558.362452v-44.663963z m0 0" fill="#9FA0A6" p-id="3442"></path><path d="M803.196461 111.21956h-356.053569c-24.282099 0-44.412336 20.004423-44.663963 44.412336v356.431011c0 24.65954 20.004423 44.663964 44.663963 44.663964h356.053569c24.65954 0 44.663964-20.004423 44.663964-44.663964v-356.053569c0.125814-24.785354-20.004423-44.789778-44.663964-44.789778zM656.497358 429.403121c-24.911168 3.019536-44.663964-9.813491-44.663963-30.95024 0-20.381865 20.381865-40.13466 44.663963-43.154196 16.73326-2.138838 26.420936 3.648605 26.420937 3.648606V280.690994c0-9.813491-10.694188-6.039071-10.694189-6.039071L580.254085 304.595651s-10.694188 3.648605-10.694188 12.833026v97.505836c0 20.381865-18.243027 40.13466-43.154196 43.154196-24.911168 3.648605-44.663964-9.184421-44.663964-29.440472 0-20.381865 19.752795-40.13466 44.663964-43.783266 16.73326-2.138838 24.407913 3.019536 24.407912 3.019536v-113.987468c0-12.833026 9.813491-26.420936 22.772331-30.069542l104.299791-33.089077c12.833026-3.648605 22.772331 3.648605 22.772331 17.362329v158.651432h0.62907l0.125814-0.251628c-0.251628 20.004423-20.507679 39.883032-44.915592 42.902568z" fill="#A40FA8" p-id="3443"></path></svg>