<?xml version="1.0" standalone="no"?><!DOCTYPE svg PUBLIC "-//W3C//DTD SVG 1.1//EN" "http://www.w3.org/Graphics/SVG/1.1/DTD/svg11.dtd"><svg t="1713229470455" class="icon" viewBox="0 0 1024 1024" version="1.1" xmlns="http://www.w3.org/2000/svg" p-id="22625" xmlns:xlink="http://www.w3.org/1999/xlink" width="256" height="256"><path d="M743.417191 0l280.583066 283.157223v655.380264a85.204583 85.204583 0 0 1-85.461998 85.461998H213.398352A85.204583 85.204583 0 0 1 128.708601 938.537487v-106.570082H42.731771A42.730999 42.730999 0 0 1 0.000772 789.236406V426.537744a41.701337 41.701337 0 0 1 12.613367-30.117632 42.473583 42.473583 0 0 1 30.117632-12.355951H128.708601V85.204583A85.461998 85.461998 0 0 1 213.398352 0z m-25.741566 64.096499H213.398352a21.108084 21.108084 0 0 0-15.187524 6.177975 21.622915 21.622915 0 0 0-6.177975 14.930109v298.859578h639.935324A42.730999 42.730999 0 0 1 875.214007 426.537744v362.698662a42.730999 42.730999 0 0 1-42.730999 42.730999H192.032853v106.570082a21.108084 21.108084 0 0 0 21.365499 21.365499h725.139907a21.108084 21.108084 0 0 0 21.3655-21.365499V308.898789l-10.039211-10.296626H823.730876a97.81795 97.81795 0 0 1-97.81795-98.075366v-128.707829zM191.260606 467.209418a120.470528 120.470528 0 0 0-100.392107 43.245831 154.449394 154.449394 0 0 0-30.117632 99.362443 154.449394 154.449394 0 0 0 29.08797 99.105029 121.50019 121.50019 0 0 0 102.966263 42.988414 116.866708 116.866708 0 0 0 77.224697-25.741565 120.985359 120.985359 0 0 0 42.988415-75.165372h-43.760662a85.461998 85.461998 0 0 1-27.543475 46.592234 78.769191 78.769191 0 0 1-48.136728 14.415276 79.541438 79.541438 0 0 1-66.41324-28.058306 121.757606 121.757606 0 0 1-19.56359-74.650541 118.153787 118.153787 0 0 1 20.078421-73.620878 74.393125 74.393125 0 0 1 62.809421-29.087969 81.343348 81.343348 0 0 1 47.107065 12.355951 64.096499 64.096499 0 0 1 25.741566 39.642012h43.760662a100.392106 100.392106 0 0 0-36.038193-66.155824 122.529853 122.529853 0 0 0-79.798853-25.741566z m258.702735 0a123.559516 123.559516 0 0 0-72.848631 19.821006 64.868746 64.868746 0 0 0-30.889879 57.146276 60.750095 60.750095 0 0 0 31.662126 55.344366 439.151112 439.151112 0 0 0 62.809421 23.167409 446.616166 446.616166 0 0 1 53.542456 18.019096 39.12718 39.12718 0 0 1 25.741566 34.493698 31.147295 31.147295 0 0 1-17.76168 27.28606 98.590197 98.590197 0 0 1-47.621897 10.039211 85.719414 85.719414 0 0 1-49.938637-12.098536 63.324252 63.324252 0 0 1-22.137747-44.532909h-44.790324a93.441884 93.441884 0 0 0 37.840101 77.224697 136.94513 136.94513 0 0 0 79.026607 19.56359 136.687714 136.687714 0 0 0 81.343348-21.108084 68.472565 68.472565 0 0 0 28.830554-58.175938 65.383577 65.383577 0 0 0-35.780777-59.205601 418.815275 418.815275 0 0 0-71.818968-25.741566 398.479438 398.479438 0 0 1-46.84965-16.732018A31.40471 31.40471 0 0 1 391.272572 540.572881a29.087969 29.087969 0 0 1 16.732017-28.315723 82.887842 82.887842 0 0 1 39.642011-7.465054 77.224697 77.224697 0 0 1 45.305156 11.068873A61.007511 61.007511 0 0 1 514.832087 553.443663h43.760662a88.036155 88.036155 0 0 0-32.949204-66.413239 125.361425 125.361425 0 0 0-75.680204-19.821006z m265.138128 0a123.559516 123.559516 0 0 0-72.848632 19.821006 64.868746 64.868746 0 0 0-30.889878 57.146276A60.750095 60.750095 0 0 0 643.539916 599.521066a439.151112 439.151112 0 0 0 62.80942 23.167409 446.616166 446.616166 0 0 1 53.542457 18.019096 39.12718 39.12718 0 0 1 25.741566 34.493698 31.147295 31.147295 0 0 1-17.761681 27.28606 98.590197 98.590197 0 0 1-47.621896 10.039211 85.719414 85.719414 0 0 1-50.9683-12.098536 63.324252 63.324252 0 0 1-22.137747-44.532909h-44.018077a92.412221 92.412221 0 0 0 37.582686 77.224697 136.94513 136.94513 0 0 0 79.026606 19.56359 136.687714 136.687714 0 0 0 81.343348-21.108084 68.472565 68.472565 0 0 0 28.830554-58.175938 65.383577 65.383577 0 0 0-35.780777-59.205601 418.815275 418.815275 0 0 0-71.818968-25.741566 398.479438 398.479438 0 0 1-46.84965-16.732018A31.40471 31.40471 0 0 1 656.410699 540.572881a29.087969 29.087969 0 0 1 16.732017-28.315723 82.887842 82.887842 0 0 1 39.642012-7.465054 77.224697 77.224697 0 0 1 45.305155 11.068873 61.007511 61.007511 0 0 1 21.108084 36.553024H823.730876a87.263908 87.263908 0 0 0-32.949204-66.41324 125.361425 125.361425 0 0 0-75.680203-19.821005z" fill="#007BEA" p-id="22626"></path></svg>