<?xml version="1.0" standalone="no"?><!DOCTYPE svg PUBLIC "-//W3C//DTD SVG 1.1//EN" "http://www.w3.org/Graphics/SVG/1.1/DTD/svg11.dtd"><svg t="1713229259681" class="icon" viewBox="0 0 1082 1024" version="1.1" xmlns="http://www.w3.org/2000/svg" p-id="13779" xmlns:xlink="http://www.w3.org/1999/xlink" width="270.5" height="256"><path d="M1014.941308 865.332934c-4.506568 23.309835-32.633769 23.869271-51.405956 24.646266-116.673496 0.372957-233.47131-0.186479-350.238046 0v100.884967h-69.929506c-171.591468-31.017621-343.555892-59.735338-515.333838-89.634086V116.869663c172.834659-29.898749 345.669317-59.362381 518.379657-89.758406h66.883687v89.634087c112.726363 0 225.452727 0.248638 338.148011-0.310798 19.020826 0.808074 39.968598-0.559436 56.53412 10.753604 11.592758 16.627683 10.225248 37.668694 11.002243 56.65844-0.559436 194.590505-0.310798 389.056691-0.186479 583.460717-0.590516 32.57161 3.045818 65.889134-3.853893 98.025627z m-576.840724-547.283852c-25.547579 1.212111-51.126239 2.79718-76.580579 4.568727-18.989746 46.029155-41.242869 90.908358-56.067923 138.522582-13.861582-44.910283-32.229732-88.204417-48.981734-132.026908-24.770585 1.336431-49.54117 2.79718-74.342835 4.25793 26.138095 57.404354 53.954499 113.969555 79.3156 171.684707-29.867669 56.036844-57.808392 112.819603-86.743667 169.198325 24.677346 1.025633 49.323611 2.020186 74.032036 2.393143 17.528996-44.630565 39.409162-87.551741 54.669334-133.02146 13.737263 48.826335 37.078178 94.016336 56.192243 140.791405 27.163728 1.864787 54.172057 3.512015 81.335785 5.128164-31.07978-62.781156-62.718997-125.096116-93.705538-187.877273a21887.624539 21887.624539 0 0 0 90.877278-183.619342z m546.786577-167.675416H613.297306v67.225565h90.131363v78.445366h-90.131363v44.848123h90.131363v78.445366h-90.131363v44.817043h90.131363v78.414286h-90.131363v44.879203h90.131363v78.445366h-90.131363v44.785963h90.131363v78.445366h-90.131363v67.225565h371.589855V150.373666z m-78.787244 145.670931h-157.667726V217.599231h157.667726v78.445366z m0 123.293489h-157.667726v-78.445366h157.667726v78.445366z m0 123.293489h-157.667726V464.155129h157.667726v78.476446z m0 123.262409h-157.667726v-78.445366h157.667726v78.445366z m0 123.293489h-157.667726v-78.507526h157.667726v78.507526z" fill="#207245" p-id="13780"></path></svg>