<?xml version="1.0" standalone="no"?><!DOCTYPE svg PUBLIC "-//W3C//DTD SVG 1.1//EN" "http://www.w3.org/Graphics/SVG/1.1/DTD/svg11.dtd"><svg t="1713229428492" class="icon" viewBox="0 0 1024 1024" version="1.1" xmlns="http://www.w3.org/2000/svg" p-id="20525" xmlns:xlink="http://www.w3.org/1999/xlink" width="256" height="256"><path d="M896 448H128v-384h541.866667v221.866667H896v162.133333z m-243.2 251.733333c-4.266667-8.533333-12.8-12.8-21.333333-17.066666-12.8-4.266667-29.866667-8.533333-42.666667-12.8-17.066667-4.266667-34.133333-8.533333-46.933333-17.066667-12.8-4.266667-21.333333-12.8-25.6-21.333333-4.266667-8.533333-8.533333-21.333333-8.533334-29.866667 0-12.8 4.266667-25.6 12.8-34.133333 8.533333-12.8 17.066667-21.333333 29.866667-25.6 12.8-4.266667 29.866667-8.533333 46.933333-8.533334 17.066667 0 34.133333 4.266667 51.2 8.533334 12.8 4.266667 25.6 12.8 34.133334 25.6 8.533333 12.8 12.8 25.6 12.8 38.4l-29.866667 4.266666c0-12.8-8.533333-25.6-17.066667-34.133333-12.8-8.533333-29.866667-12.8-42.666666-12.8-17.066667 0-29.866667 4.266667-42.666667 12.8-8.533333 4.266667-12.8 17.066667-12.8 25.6 0 8.533333 4.266667 17.066667 8.533333 21.333333 17.066667 8.533333 34.133333 17.066667 51.2 17.066667 17.066667 4.266667 38.4 8.533333 55.466667 17.066667 12.8 4.266667 25.6 12.8 34.133333 25.6 8.533333 8.533333 8.533333 21.333333 8.533334 34.133333 0 12.8-4.266667 25.6-12.8 38.4-8.533333 12.8-21.333333 21.333333-34.133334 25.6-17.066667 8.533333-29.866667 8.533333-46.933333 8.533333-21.333333 0-38.4-4.266667-55.466667-8.533333-12.8-4.266667-25.6-17.066667-34.133333-29.866667-8.533333-12.8-12.8-29.866667-12.8-46.933333l29.866667-4.266667c0 12.8 4.266667 21.333333 8.533333 29.866667 4.266667 8.533333 17.066667 17.066667 25.6 21.333333 12.8 4.266667 25.6 8.533333 38.4 8.533334 12.8 0 21.333333 0 34.133333-4.266667 8.533333-4.266667 17.066667-8.533333 21.333334-17.066667 4.266667-4.266667 8.533333-12.8 8.533333-21.333333-17.066667-4.266667-21.333333-12.8-25.6-17.066667z m-341.333333 17.066667l29.866666-4.266667c0 12.8 0 29.866667 8.533334 38.4 8.533333 8.533333 17.066667 12.8 25.6 8.533334 8.533333 0 17.066667 0 21.333333-4.266667 4.266667-4.266667 8.533333-8.533333 12.8-17.066667 4.266667-8.533333 4.266667-21.333333 4.266667-29.866666v-174.933334h34.133333v170.666667c0 17.066667 0 34.133333-8.533333 46.933333-4.266667 12.8-12.8 21.333333-25.6 25.6-12.8 4.266667-25.6 8.533333-38.4 8.533334-17.066667 0-38.4-4.266667-51.2-17.066667-8.533333-8.533333-17.066667-29.866667-12.8-51.2zM896 960H128V896h768v64z m64-512V290.133333L669.866667 0H93.866667c-4.266667 0-12.8 4.266667-21.333334 8.533333-4.266667 8.533333-8.533333 12.8-8.533333 21.333334v418.133333H0V896h64v98.133333c0 8.533333 4.266667 17.066667 8.533333 21.333334 8.533333 4.266667 12.8 8.533333 21.333334 8.533333h832c8.533333 0 17.066667-4.266667 21.333333-8.533333 4.266667-4.266667 8.533333-12.8 8.533333-21.333334V896H1024V448h-64z" fill="#129C00" p-id="20526"></path></svg>