<?xml version="1.0" standalone="no"?><!DOCTYPE svg PUBLIC "-//W3C//DTD SVG 1.1//EN" "http://www.w3.org/Graphics/SVG/1.1/DTD/svg11.dtd"><svg t="1713229451017" class="icon" viewBox="0 0 1024 1024" version="1.1" xmlns="http://www.w3.org/2000/svg" p-id="21591" xmlns:xlink="http://www.w3.org/1999/xlink" width="256" height="256"><path d="M1008 464h-72a8 8 0 0 1-8-8v-141.44a64 64 0 0 0-18.688-45.376L658.688 18.688A63.808 63.808 0 0 0 613.504 0H144a48 48 0 0 0-48 48v408a8 8 0 0 1-8 8H16A16 16 0 0 0 0 480v400c0 8.768 7.232 16 16 16H96c0 35.328 14.272 67.328 37.504 90.496 23.168 23.232 55.168 37.504 90.496 37.504h656a48 48 0 0 0 48-48v-64a16 16 0 0 1 16-16h64a16 16 0 0 0 16-16V480a16 16 0 0 0-16-16zM704 154.496L773.504 224h-65.536A4.032 4.032 0 0 1 704 219.968V154.56zM160 72c0-4.416 3.584-8 8-8H576a64 64 0 0 1 64 64v144c0 8.832 7.232 16 16 16h144a64 64 0 0 1 64 64v104a8 8 0 0 1-8 8H168a8 8 0 0 1-8-8v-384z m492.288 603.52c0 32.512-9.472 58.88-28.416 79.104-18.88 20.288-43.648 30.4-74.24 30.4-29.952 0-54.208-9.792-72.96-29.44-18.496-19.584-27.904-44.864-27.904-75.776 0-32.704 9.536-59.328 28.608-79.808 19.136-20.48 44.352-30.784 75.648-30.784 29.76 0 53.76 9.856 72 29.76 18.176 19.84 27.264 45.44 27.264 76.544z m-365.888 53.248c16.896 13.952 35.84 20.928 57.28 20.928 12.16 0 21.248-2.112 27.328-6.272 6.08-4.224 9.216-9.536 9.216-16.128a22.528 22.528 0 0 0-7.296-16c-4.928-4.992-17.6-11.904-38.4-20.48-32.64-13.824-48.896-33.92-48.896-60.416 0-19.392 7.36-34.56 22.144-45.184 14.848-10.688 34.304-16.128 58.752-16.128 20.352 0 37.44 2.688 51.264 7.936v41.792a85.504 85.504 0 0 0-49.216-14.336 50.176 50.176 0 0 0-26.24 6.016c-6.656 4.032-9.856 9.408-9.856 16.128 0 5.376 2.24 10.368 6.72 14.848 4.48 4.48 15.616 10.752 33.28 18.432 20.736 8.896 35.008 18.304 42.88 28.16a55.168 55.168 0 0 1 11.648 35.328c0 20.032-7.104 35.328-21.312 45.824-14.208 10.496-34.368 15.808-60.48 15.808-23.936 0-43.52-3.904-58.688-11.648l-0.128-44.608c0.128 0 0 0 0 0z m-139.584 8.96c7.68 5.76 16.512 8.768 26.368 8.768 21.44 0 32.128-16.192 32.128-48.64V572.736h44.48v126.848h-0.064c0 27.52-6.4 48.64-19.136 63.488-12.672 14.592-30.912 22.016-54.592 22.016a77.44 77.44 0 0 1-29.184-5.44v-41.856zM864 952a8 8 0 0 1-8 8H224a64 64 0 0 1-64-64h696c4.416 0 8 3.584 8 8v48z m9.216-170.624h-45.504L739.328 646.4a162.048 162.048 0 0 1-10.048-17.024h-0.64c0.768 7.232 1.152 18.304 1.152 33.28v118.72h-42.24V572.8h48.576l85.12 131.2c5.632 8.64 9.024 14.144 10.368 16.576h0.64a199.168 199.168 0 0 1-1.28-28.8v-119.04h42.24v208.704z m-267.392-103.168c0 20.864-4.8 37.504-14.528 49.792-9.728 12.288-23.296 18.56-40.704 18.56a47.744 47.744 0 0 1-40.32-19.328c-9.792-12.928-14.72-29.504-14.72-49.856 0-20.608 5.056-37.248 15.04-50.176a49.536 49.536 0 0 1 41.216-19.392c17.216 0 30.464 6.272 39.872 18.88 9.408 12.608 14.08 29.824 14.08 51.52z" fill="#A0D911" p-id="21592"></path></svg>