<?xml version="1.0" standalone="no"?><!DOCTYPE svg PUBLIC "-//W3C//DTD SVG 1.1//EN" "http://www.w3.org/Graphics/SVG/1.1/DTD/svg11.dtd"><svg t="1713253996768" class="icon" viewBox="0 0 1024 1024" version="1.1" xmlns="http://www.w3.org/2000/svg" p-id="2358" xmlns:xlink="http://www.w3.org/1999/xlink" width="256" height="256"><path d="M1000.207102 340.239099c0-59.250945-14.250227-116.376855-57.125911-161.252571-40.875652-42.875684-79.626269-87.751399-124.501985-122.501953C785.828684 29.984153 740.952969 5.483762 702.202351 3.358729 555.200007-2.766369 408.197664 1.358697 261.320322 1.358697c-40.875652 2.000032-71.50114 26.500422-73.501171 65.376042-2.000032 51.000813 0 104.12666 0 155.127473h59.250944c0-42.875684 2.000032-83.751335 0-124.501985 0-24.500391 8.12513-34.750554 34.750554-34.750554h410.256541c6.125098 0 12.250195 2.000032 22.500358 6.125098v224.503579h230.628677c0 218.378481 0 432.756899-4.125066 645.010283 0 28.625456-20.375325 26.500422-38.750617 26.500422H281.695647c-26.500422 0-40.875652-6.125098-38.750618-34.750554 2.000032-10.250163-2.000032-18.375293-2.000032-26.500422h-55.125878c-4.125066 89.876433 18.375293 120.376919 89.751431 120.376919H912.455703c61.250976 0 87.751399-26.500422 87.751399-87.751399 0-197.878155 2.000032-397.881343 0-595.8845z m-226.628613-108.251726V101.360291l130.627082 130.627082H773.578489z" fill="#B85884" p-id="2359"></path><path d="M628.701179 687.244631h234.753743v61.250977H628.701179zM634.826277 411.615237h228.628645v65.376042H634.826277zM630.701211 550.492451h234.753743v61.250977H630.701211zM22.441514 311.613643v536.883559h538.883591V311.613643H22.441514z m94.251503 499.382961H59.942112V754.245699h56.750905v56.750905z m0-135.127154H59.942112V619.243547h56.750905v56.625903z m0-135.002152H59.942112v-56.750905h56.750905v56.750905z m0-135.002153H59.942112v-56.750904h56.750905v56.750904z m299.629776 201.128207l-184.877947 106.751702c-20.750331 12.000191-46.750745-3.000048-46.750745-27.000431V473.366222c0-24.000383 26.000415-39.000622 46.750745-27.000431l184.877947 106.751702c20.750331 12.000191 20.750331 41.875668 0 53.875859z m107.501714 204.003252h-56.750904V754.245699h56.750904v56.750905z m0-135.127154h-56.750904V619.243547h56.750904v56.625903z m0-135.002152h-56.750904v-56.750905h56.750904v56.750905z m0-135.002153h-56.750904v-56.750904h56.750904v56.750904z" fill="#B85884" p-id="2360"></path></svg>