<?xml version="1.0" standalone="no"?><!DOCTYPE svg PUBLIC "-//W3C//DTD SVG 1.1//EN" "http://www.w3.org/Graphics/SVG/1.1/DTD/svg11.dtd"><svg t="1713229493469" class="icon" viewBox="0 0 1024 1024" version="1.1" xmlns="http://www.w3.org/2000/svg" p-id="23652" xmlns:xlink="http://www.w3.org/1999/xlink" width="256" height="256"><path d="M192.065027 384.129533h640.128032a42.536025 42.536025 0 0 1 42.536025 42.536025v362.730519a42.796982 42.796982 0 0 1-42.536025 42.796982H192.065027V939.446472a20.354662 20.354662 0 0 0 6.262973 15.135518 21.659448 21.659448 0 0 0 15.135518 6.262973H939.446472a21.398491 21.398491 0 0 0 21.398491-21.398491V308.973857l-10.177331-10.177332h-127.347118a98.11991 98.11991 0 0 1-97.858953-98.11991V72.546626l-8.611588-8.611588H213.463518a21.659448 21.659448 0 0 0-15.135518 6.262973 20.876577 20.876577 0 0 0-6.262973 15.135518zM128.130511 832.193059H42.797504A42.796982 42.796982 0 0 1 0.000522 789.396077v-362.730519a41.753153 41.753153 0 0 1 12.525946-30.010079 42.536025 42.536025 0 0 1 30.271036-12.525946h85.333007V85.333529A85.07205 85.07205 0 0 1 213.463518 0.000522h530.004091l280.528999 282.355699V939.446472A84.550136 84.550136 0 0 1 939.446472 1023.996608H213.463518A84.550136 84.550136 0 0 1 128.130511 939.446472z m32.619651-359.599033v38.36071h146.918909l-158.401026 200.415136v35.229223h225.988943v-38.36071H208.766289l156.574325-199.893221v-35.751138z m251.040835 0v274.005069h44.88464v-274.005069z m98.641824 0v274.005069h45.145598v-104.382883h67.848874c66.805045 0 100.207568-28.444336 100.207568-84.811093s-33.402523-84.028221-99.424697-84.028221z m45.145598 38.36071h65.239302a69.675575 69.675575 0 0 1 43.318896 10.699245 41.492196 41.492196 0 0 1 14.352647 34.968266 42.536025 42.536025 0 0 1-13.830732 35.751138 73.589933 73.589933 0 0 1-43.579854 10.699245h-65.239302z" fill="#007BEA" p-id="23653"></path></svg>